<svg xmlns="http://www.w3.org/2000/svg" viewBox="0 0 228.66 39.08" xmlns:v="https://vecta.io/nano"><path d="M7.744 9.695a2.58 2.58 0 0 0-.318.021h-.318a9.22 9.22 0 0 0-1.293.168c-.41.085-.727.184-.953.297-.565.382-1.11 1.322-1.633 2.82s-.976 3.11-1.357 4.834l-.721 3.922-.254 2.926.021.615c.028.155.07.26.127.316.367.41.791.679 1.271.807a7.91 7.91 0 0 0 1.568.232h6.51c.198-.028.374-.091.529-.189l.467-.297c.028-.014.048-.036.063-.064l.086-.084.084-.086c.028-.028.05-.056.064-.084a.53.53 0 0 0 .063-.127l.064-.107.445-3.031h-.275c-.028.155-.092.304-.191.445-.085.141-.184.248-.297.318l-.084.043-.086.041c-.057.014-.119.036-.189.064a.76.76 0 0 1-.191.064 2.09 2.09 0 0 1-.148.041h-.127-4.389-.105c-.028 0-.065-.007-.107-.021a1.44 1.44 0 0 1-.635-.189.59.59 0 0 1-.297-.488v-.064-.084c-.014-.028-.021-.056-.021-.084v-.107c0-.481.064-1.159.191-2.035l.508-2.777.826-2.945c.325-.933.672-1.619 1.039-2.057.071-.099.162-.17.275-.213.127-.042.256-.062.383-.062h.041.064.084.086.084.086 3.35.678a1.42 1.42 0 0 0 .467-.107c.17-.071.289-.162.359-.275.071-.127.135-.318.191-.572l.105-.721.213-1.102H7.744zm86.24 0c.028 0 .058.007.086.021.113.028.219.083.318.168a.57.57 0 0 1 .232.256c.014.028.029.048.043.063s.027.036.041.064h.021l.086.127c.028.042.041.107.041.191 0 .028-.005.07-.02.127 0 .042-.015.099-.043.17l-3.646 14.732c-.014.057-.021.106-.021.148v.129c0 .099.007.176.021.232a1.11 1.11 0 0 0 .105.17v.021c.014 0 .021.005.021.02.014 0 .021.007.021.021.014 0 .021.007.021.021.071.071.148.128.232.17l.318.084c.014 0 .029.007.043.021h.063 3.943c-.014-.014-.034-.021-.062-.021l-.361-.084c-.099-.042-.169-.099-.211-.17-.014-.028-.029-.048-.043-.062l-.043-.086a.82.82 0 0 1-.105-.189c-.028-.085-.043-.178-.043-.277v-.02c0-.014.007-.029.021-.043v-.043-.043l1.193-4.727h3.979c.735 0 1.322-.072 1.76-.213s.849-.325 1.23-.551c.65-.339 1.215-.975 1.695-1.908s.834-1.928 1.061-2.988l.17-1.104a9.78 9.78 0 0 0 .063-1.08c0-.594-.07-1.123-.211-1.59-.127-.481-.333-.834-.615-1.061-.353-.212-.762-.383-1.229-.51-.452-.127-.947-.189-1.484-.189h-8.693zm39.453 0c-.071 0-.133.007-.189.021h-.127c-.099 0-.185.005-.256.02a.37.37 0 0 0-.168.043c-.057.014-.113.036-.17.064a2.57 2.57 0 0 0-.17.127c-.071.057-.142.106-.213.148-.057.042-.111.092-.168.148-.17.155-.298.324-.383.508s-.162.431-.232.742l-.127.531-.107.678c0 .028-.007.056-.021.084v.064a1.11 1.11 0 0 1-.105.17c-.028.042-.063.077-.105.105a.35.35 0 0 0-.084.021c-.028.014-.065.021-.107.021 0 .014-.007.021-.021.021l-.105.041h-.084-.869l-.658 2.545h1.484l-2.523 9.836v.043.021.043.041.086.084a1.09 1.09 0 0 1 .021.213c0 .071.015.126.043.168.028.057.078.106.148.148a1.17 1.17 0 0 0 .232.107l.17.041c.057.014.106.021.148.021h3.393c-.028-.014-.063-.021-.105-.021-.113-.028-.219-.078-.318-.148s-.17-.148-.213-.232c-.028-.071-.048-.14-.062-.211s-.021-.15-.021-.234v-.043-.041-.043-.043l2.502-9.836h2.627a.71.71 0 0 0 .318-.064 1.05 1.05 0 0 0 .275-.232c.099-.071.171-.15.213-.234.057-.085.084-.169.084-.254l.531-1.76h-3.371l.34-1.484h3.158c.028 0 .063-.005.105-.02.057-.014.106-.036.148-.064h.043l.043-.043.105-.041.105-.064c.057-.028.099-.063.127-.105.042-.042.072-.085.086-.127a.19.19 0 0 0 .02-.086c.014-.028.021-.048.021-.062l.17-1.463h-5.576zm-35 2.564h2.438a1.73 1.73 0 0 1 .551.086c.184.057.347.148.488.275.057.057.091.168.105.338a3.26 3.26 0 0 1 .043.572 7.14 7.14 0 0 1-.043.742l-.105.828c-.085.481-.211.931-.381 1.355-.155.424-.353.743-.594.955-.17.155-.397.297-.68.424a2.52 2.52 0 0 1-.848.232h-2.441l1.467-5.809zm45.623.699c-.862-.014-1.654.122-2.375.404-.707.269-1.392.798-2.057 1.59-.481.594-.891 1.25-1.23 1.971-.325.707-.585 1.435-.783 2.184a11.36 11.36 0 0 0-.34 1.676l-.084 1.568c0 .608.05 1.158.148 1.652s.247.898.445 1.209c.297.424.812.771 1.547 1.039.749.254 1.576.381 2.48.381l.721-.02.764-.107c.565-.099 1.123-.26 1.674-.486a6.23 6.23 0 0 0 1.568-.912c.537-.424.997-1.038 1.379-1.844.396-.82.713-1.683.953-2.588.212-.791.368-1.547.467-2.268.099-.735.148-1.336.148-1.803v-.041-.043-.021-.043c-.099-1.611-.649-2.587-1.652-2.926-.989-.339-2.071-.53-3.244-.572h-.064-.062-.191-.211zm50.242 0l.064.064c.042.014.077.034.105.063l.043.043.043.043.084.127c.028.028.043.05.043.064.028.099.048.211.063.338a1.49 1.49 0 0 1 .043.361l-2.82 11.744v.064.063c-.014.127.001.234.043.318a.73.73 0 0 0 .191.232c.057.042.126.079.211.107s.171.048.256.063h.063.064 3.539c-.028 0-.063-.007-.105-.021-.028-.014-.063-.027-.105-.041l-.086-.043c-.028-.028-.056-.05-.084-.064-.014-.028-.029-.048-.043-.062l-.041-.043c-.014-.014-.029-.021-.043-.021 0-.014-.007-.027-.021-.041-.042-.042-.077-.092-.105-.148-.028-.071-.043-.206-.043-.404l2.248-9.01c.057-.226.126-.402.211-.529a.61.61 0 0 1 .34-.254c.127-.071.29-.12.488-.148a4.27 4.27 0 0 1 .613-.086h.064.084a3.91 3.91 0 0 1 .848.086c.254.042.41.119.467.232.042.057.079.156.107.297.028.127.048.268.063.424v.064.084l-2.057 8.84c0 .014-.007.044-.021.086 0 .028-.005.056-.02.084v.043.043c0 .071.005.14.02.211s.036.12.064.148l.043.043c.014.014.027.034.041.063.028.028.065.058.107.086a.53.53 0 0 0 .127.063c.028 0 .048.007.063.021h.064 3.646l-.086-.041c-.014-.014-.034-.029-.062-.043a.69.69 0 0 0-.105-.086.69.69 0 0 0-.086-.105.69.69 0 0 0-.084-.105l-.043-.086c-.057-.113-.099-.225-.127-.338s-.043-.241-.043-.383l2.248-9.496.105-.51c.028-.17.043-.325.043-.467 0-.311-.057-.593-.17-.848a1.73 1.73 0 0 0-.488-.678c-.226-.17-.466-.298-.721-.383-.24-.085-.501-.127-.783-.127h-2.588c-.057 0-.111.007-.168.021l-.191.043a2.56 2.56 0 0 1-.191.084c-.057.014-.113.036-.17.064l-.084.043a.33.33 0 0 0-.086.063c-.042.028-.085.063-.127.105a.38.38 0 0 0-.105.107l-.043.084c-.014.014-.027.036-.041.064l-.68 1.059.107-.889c0-.141-.037-.262-.107-.361-.071-.113-.162-.205-.275-.275-.028-.014-.063-.029-.105-.043a1 1 0 0 1-.105-.062h-.043c0-.014-.007-.021-.021-.021-.042-.028-.092-.05-.148-.064-.042-.014-.077-.021-.105-.021h-3.287zm-132.965.021c.028 0 .056.007.084.021h.105c.085.014.164.049.234.105.071.042.128.092.17.148.028.042.048.107.063.191a.62.62 0 0 1 .043.232v.064.043c0 .014-.007.034-.021.063v.043l-2.289 9.857-.148.721c-.028.212-.043.395-.043.551 0 .198.022.376.064.531.057.141.148.282.275.424.042.028.077.063.105.105.042.028.085.063.127.105.198.141.403.255.615.34s.452.127.721.127h3.541a2.31 2.31 0 0 0 .359-.021l.275-.084h.043l.043-.043h.041c.014-.014.029-.021.043-.021a.19.19 0 0 0 .086-.02c.042-.014.077-.036.105-.064.028-.014.048-.029.063-.043.028-.014.05-.034.064-.062.028-.014.048-.029.063-.043.014-.028.029-.05.043-.064l.531-1.102-.213.934c0 .057.007.111.021.168a1.39 1.39 0 0 0 .084.148c.014.028.021.05.021.064l.043.043c0 .014.007.027.021.041l.063.064.043.043c.028 0 .05.007.064.021.028.014.048.027.063.041h.064 3.857a.6.6 0 0 1-.359-.105.8.8 0 0 1-.234-.254.66.66 0 0 1-.105-.275v-.318l2.65-11.873v-.041-.064l-.043-.191c0-.057-.007-.111-.021-.168l-.043-.043v-.064c0-.014-.005-.027-.02-.041a.34.34 0 0 0-.064-.086c-.014-.014-.029-.021-.043-.021 0-.014-.005-.021-.02-.021a.33.33 0 0 0-.086-.062c-.014-.028-.029-.043-.043-.043h-3.814c.127 0 .239.007.338.021s.178.064.234.148c.028.042.048.099.063.17a.76.76 0 0 1 .064.191v.063.043l-1.887 8.861c-.014.057-.036.121-.064.191l-.043.168a4.11 4.11 0 0 1-.148.445 1.45 1.45 0 0 1-.275.426c-.042.071-.233.133-.572.189-.325.042-.684.064-1.08.064h-.064-.062c-.353 0-.687-.022-.998-.064-.297-.042-.48-.105-.551-.189-.057-.071-.099-.15-.127-.234-.014-.085-.021-.176-.021-.275 0-.113.007-.227.021-.34l.086-.402c.014-.028.02-.056.02-.084a.4.4 0 0 0 .021-.127l1.994-8.418c.014-.028.02-.063.02-.105v-.127-.043-.041c0-.071-.005-.135-.02-.191s-.036-.099-.064-.127c0-.014-.007-.029-.021-.043l-.062-.064c-.014-.014-.036-.02-.064-.02l-.043-.043c-.028-.014-.056-.021-.084-.021-.014-.014-.029-.021-.043-.021h-3.857zm16.916 0c-.466 0-.875.084-1.229.254-.339.155-.622.333-.848.531l-.234.232a1.94 1.94 0 0 0-.148.213c-.311.339-.558.678-.742 1.018s-.325.678-.424 1.018-.169.678-.211 1.018l-.086 1.018v.043.041.043.043c0 .707.277 1.214.828 1.525.565.297 1.187.53 1.865.699l.297.086a2.22 2.22 0 0 1 .297.063 7.76 7.76 0 0 1 1.463.467c.424.184.635.466.635.848v.043.043c-.014.014-.02.027-.02.041v.043l-.043.254c-.014.085-.036.171-.064.256a3.42 3.42 0 0 1-.359.805c-.155.24-.376.411-.658.51s-.629.169-1.039.211a12.59 12.59 0 0 1-1.334.064h-.934l-1.039-.043H74.1h-.084a8.58 8.58 0 0 1-.68-.021c-.155-.028-.267-.113-.338-.254l-.043-.086c-.014-.028-.021-.056-.021-.084-.028-.057-.05-.113-.064-.17v-.17-.084a.4.4 0 0 1 .021-.127h-.17l-.656 2.332c-.014.014-.021.042-.021.084v.107.084c0 .028.007.05.021.064v.084c0 .028.007.056.021.084 0 .028.007.058.021.086v.041c0 .014.007.029.021.043.028.057.078.106.148.148s.14.072.211.086a.83.83 0 0 0 .105.041h.064 6.445c.551 0 1.044-.084 1.482-.254.438-.184.856-.439 1.252-.764.339-.269.629-.677.869-1.229a8.9 8.9 0 0 0 .551-1.738l.105-.721a6.02 6.02 0 0 0 .043-.701c0-.339-.035-.649-.105-.932-.057-.283-.156-.495-.297-.637-.269-.311-.588-.558-.955-.742s-.749-.34-1.145-.467a7.48 7.48 0 0 0-.932-.232l-.848-.191a.19.19 0 0 0-.086-.02c-.014-.014-.034-.021-.062-.021-.396-.113-.658-.254-.785-.424S78 17.235 78 17.051a2.1 2.1 0 0 1 .021-.297l.086-.338.041-.148.043-.17c.127-.452.325-.722.594-.807a2.87 2.87 0 0 1 .869-.127 1.54 1.54 0 0 1 .254-.021c.099 0 .191-.007.275-.021h2.756c.17 0 .305-.013.404-.041s.183-.07.254-.127c.014 0 .029-.007.043-.021s.027-.021.041-.021c.042-.042.085-.092.127-.148.057-.057.099-.128.127-.213l.361-1.568h-5.895-.041-.021-.043-.043zm42.486 0c.057 0 .113.022.17.064.071.028.118.063.146.105.014.028.029.05.043.064s.021.027.021.041l.043.086.041.041v.086c.014.014.021.034.021.063 0 .057-.013.128-.041.213l-.064.297-2.734 11.766v.064.041c.014.085.034.171.063.256s.065.154.107.211c.042.099.127.17.254.213.141.042.305.063.488.063h3.412c-.113 0-.227-.035-.34-.105-.099-.071-.176-.155-.232-.254 0-.014-.007-.021-.021-.021v-.043l-.021-.021v-.041a.47.47 0 0 1-.062-.148c-.014-.057-.021-.121-.021-.191v-.084c0-.028.007-.065.021-.107l2.078-8.904a1.72 1.72 0 0 1 .148-.359c.057-.113.119-.197.189-.254l.064-.064c.028-.028.056-.048.084-.062s.05-.029.064-.043c.028-.014.048-.029.063-.043a1.15 1.15 0 0 1 .361-.148c.127-.028.303-.043.529-.043h2.438c.042 0 .087-.005.129-.02l.168-.043c.071-.028.135-.063.191-.105.071-.042.128-.087.17-.129l.043-.041.041-.043.043-.043c.014-.028.029-.048.043-.062a1.49 1.49 0 0 0 .105-.213c.042-.071.064-.148.064-.232l.465-1.803h-3.35c-.014 0-.034.007-.062.021-.028 0-.05.007-.064.021h-.041-.021l-.086.043c-.028.014-.048.02-.062.02l-.086.043a1.07 1.07 0 0 0-.105.064c-.057.028-.113.07-.17.127-.042.042-.077.085-.105.127l-.488.934c.014-.028.021-.065.021-.107v-.148-.062-.043-.084-.127c-.014-.141-.049-.284-.105-.426a.46.46 0 0 0-.234-.297h-.062c-.028-.014-.05-.027-.064-.041a.4.4 0 0 1-.127-.021.4.4 0 0 0-.127-.021c-.028-.014-.063-.021-.105-.021h-.086-3.242zm31.418 0c.057 0 .113.022.17.064.071.028.12.063.148.105.014.028.027.05.041.064s.021.027.021.041l.043.086.043.041v.086c.014.014.021.034.021.063 0 .057-.015.128-.043.213l-.064.297-2.734 11.766v.064.041c.014.085.036.171.064.256s.063.154.105.211c.042.099.127.17.254.213.141.042.305.063.488.063h3.412a.63.63 0 0 1-.338-.105.8.8 0 0 1-.234-.254c0-.014-.007-.021-.021-.021v-.043l-.02-.021v-.041c-.028-.042-.05-.092-.064-.148s-.021-.121-.021-.191v-.084c0-.028.007-.065.021-.107l2.078-8.904a1.72 1.72 0 0 1 .148-.359c.057-.113.119-.197.189-.254l.064-.064c.028-.028.056-.048.084-.062s.05-.029.064-.043c.028-.014.05-.029.064-.043a1.14 1.14 0 0 1 .359-.148c.127-.028.303-.043.529-.043h2.439c.042 0 .085-.005.127-.02l.17-.043a.82.82 0 0 0 .189-.105c.071-.042.128-.087.17-.129l.043-.041.043-.043.041-.043c.014-.028.029-.048.043-.062a1.49 1.49 0 0 0 .105-.213c.042-.071.064-.148.064-.232l.467-1.803h-3.35c-.014 0-.036.007-.064.021-.028 0-.05.007-.064.021h-.041-.021l-.084.043c-.028.014-.05.02-.064.02l-.084.043c-.028.014-.065.036-.107.064-.057.028-.113.07-.17.127-.042.042-.077.085-.105.127l-.488.934c.014-.028.021-.065.021-.107v-.148-.062-.043-.084-.127c-.014-.141-.049-.284-.105-.426-.042-.141-.119-.24-.232-.297h-.064c-.028-.014-.048-.027-.062-.041a.41.41 0 0 1-.129-.021.4.4 0 0 0-.127-.021c-.028-.014-.063-.021-.105-.021h-.084-3.244zm-103.922.021a.9.9 0 0 1 .551.191c.17.127.283.276.34.445v.063c.014.028.02.05.02.064.014.057.021.106.021.148a.47.47 0 0 1 .021.148.4.4 0 0 1-.021.127.4.4 0 0 1-.021.127l-3.752 14.797a.67.67 0 0 0 .105.361.64.64 0 0 0 .213.254h.021c0 .014.007.021.021.021.014.014.034.029.063.043.014.028.029.048.043.063.057.057.121.099.191.127.071.042.14.072.211.086l3.16-.021c-.028 0-.058-.007-.086-.021s-.063-.029-.105-.043a.53.53 0 0 1-.127-.062l-.086-.086c-.014-.014-.027-.034-.041-.062l-.021-.021v-.021a.5.5 0 0 1-.064-.191v-.211l.764-2.861h3.773l1.145-.043c.353-.028.678-.113.975-.254.721-.396 1.357-1.081 1.908-2.057a15.87 15.87 0 0 0 1.336-3.096c.297-.905.517-1.774.658-2.607s.211-1.505.211-2.014v-.127-.17c-.014-.551-.098-1.081-.254-1.59s-.48-.89-.975-1.145c-.155-.071-.326-.135-.51-.191a3.87 3.87 0 0 0-.551-.127 1.18 1.18 0 0 0-.232-.021 1.09 1.09 0 0 0-.213-.021h-2.057-.062-.043-.064-.041a2.92 2.92 0 0 0-.361.021c-.099.014-.198.056-.297.127-.028 0-.056.007-.084.021a.33.33 0 0 0-.086.063l-.105.107-.105.105c-.014.042-.036.077-.064.105-.014.028-.021.058-.021.086l-1.334 2.248.486-1.973v-.043c.014-.014.021-.029.021-.043v-.02-.043c0-.057-.015-.106-.043-.148l-.084-.17h-.021v-.043l-.043-.041c0-.028-.007-.05-.021-.064-.085-.127-.204-.204-.359-.232-.155-.042-.326-.064-.51-.064h-.084-.084-3.223zm162.922 0a5.38 5.38 0 0 0-1.209.127 5.48 5.48 0 0 0-1.102.34l-.213.084c-.071.028-.142.065-.213.107-.763.424-1.385 1.187-1.865 2.289a17.13 17.13 0 0 0-1.102 3.498l-.275 1.525-.17 1.441a.7.7 0 0 1-.021.17v.17.17.17c0 .664.106 1.3.318 1.908.226.608.664 1.051 1.314 1.334.042.014.092.036.148.064l.17.043a4.54 4.54 0 0 0 .594.148 4.15 4.15 0 0 0 .762.063h.086.084.086.084 4.58c.17 0 .316-.035.443-.105s.248-.155.361-.254h.021l.043-.043c.085-.057.162-.141.232-.254a1.14 1.14 0 0 0 .148-.383l.656-2.904c-.155.382-.465.659-.932.828s-1.477.254-3.031.254h-.234-.211a1.09 1.09 0 0 1-.213.021h-.211c-.382 0-.721-.084-1.018-.254-.297-.184-.51-.637-.637-1.357a.4.4 0 0 1-.021-.127v-.17c0-.325.042-.756.127-1.293.099-.537.233-1.104.402-1.697l.488-1.398c.198-.452.411-.848.637-1.187a1.13 1.13 0 0 1 .721-.424 6.58 6.58 0 0 1 .932-.062h3.139a.98.98 0 0 0 .402-.086 2.92 2.92 0 0 0 .361-.191h.02l.043-.041.064-.064.084-.084.043-.043.043-.084a.54.54 0 0 0 .063-.129c.028-.042.043-.077.043-.105l.359-2.014h-5.426zm-193.98.021l-.232 1.547v.086c0 .028.005.056.02.084.014.099.044.191.086.275s.099.142.17.17l.041.043h.043l.275.127c.113.042.234.063.361.063h3.879a1.57 1.57 0 0 1 .381.043c.127.028.221.085.277.17.042.057.077.133.105.232a.8.8 0 0 1 .063.318v.043.043.02c-.014.057-.02.113-.02.17v.148c-.014.127-.044.241-.086.34-.028.099-.098.191-.211.275l-.129.043-.105.041a.4.4 0 0 0-.127.021h-.127-.064-.041-.064c-.014-.014-.034-.021-.062-.021h-3.795-.275c-.085 0-.171.007-.256.021-.396.014-.77.071-1.123.17s-.621.277-.805.531c-.085.099-.171.218-.256.359l-.254.467c-.212.424-.417.926-.615 1.506a16.84 16.84 0 0 0-.467 1.758l-.168 1.018-.043.934c0 .297.02.579.063.848s.114.501.213.699c.113.226.254.417.424.572.184.141.382.248.594.318a1.66 1.66 0 0 0 .34.127 2.55 2.55 0 0 0 .316.021h.064.064 2.777a.44.44 0 0 0 .232-.062l.211-.127c.028-.028.065-.05.107-.064l.105-.064c.028-.028.056-.048.084-.062.028-.028.065-.058.107-.086l.084-.084a.69.69 0 0 0 .086-.105l.084-.086c.028-.028.05-.056.064-.084l1.199-2.031-.479 2.031v.105l.041.127c.014.028.021.065.021.107l.043.084c.014.014.021.036.021.064.014.028.027.048.041.063 0 .014.007.029.021.043l.064.063c.028.014.056.036.084.064.042.014.079.029.107.043a1 1 0 0 0 .105.063h.105 3.795l-.084-.041a.47.47 0 0 1-.191-.086.74.74 0 0 1-.148-.148c0-.014-.007-.021-.021-.021 0-.014-.007-.027-.021-.041a2.21 2.21 0 0 1-.084-.275c-.014-.113-.021-.249-.021-.404l.021-.467a5.02 5.02 0 0 1 .127-.551l1.908-8.84c.028-.113.048-.227.063-.34.028-.113.043-.225.043-.338v-.086-.084c-.028-.24-.092-.48-.191-.721a1.86 1.86 0 0 0-.402-.615c-.226-.24-.486-.396-.783-.467-.283-.071-.616-.105-.998-.105h-6.783zm95.549 0l-2.121.105c-.664.057-1.152.156-1.463.297-.678.297-1.32 1.082-1.928 2.354-.594 1.272-1.032 2.643-1.314 4.113l-.234 1.463-.062 1.398c0 .707.07 1.35.211 1.93.155.565.396 1.004.721 1.314.226.198.523.346.891.445.367.085.741.142 1.123.17l.213.041h.232 4.41.084c.028-.014.058-.021.086-.021.184-.014.332-.034.445-.062a2.1 2.1 0 0 0 .318-.105l.105-.064.127-.084a3.19 3.19 0 0 0 .34-.297 1.53 1.53 0 0 0 .297-.445l.783-3.18c-.113.17-.247.316-.402.443a3.78 3.78 0 0 1-.488.34l-.316.148-.297.086c-.184.042-.382.07-.594.084h-.764-.084-.086-2.416-.213a1.07 1.07 0 0 1-.211-.021c-.212-.014-.41-.049-.594-.105-.17-.057-.298-.148-.383-.275a.71.71 0 0 1-.127-.275c-.028-.127-.043-.268-.043-.424 0-.353.049-.792.148-1.314l.162-.828h6.92c.325 0 .573-.035.742-.105.17-.085.261-.199.275-.34a4.89 4.89 0 0 0 .105-.402l.17-.637.191-1.08a9.08 9.08 0 0 0 .127-1.23v-.105-.127c0-.594-.084-1.153-.254-1.676s-.496-.897-.977-1.123c-.283-.127-.77-.226-1.463-.297s-1.428-.105-2.205-.105h-.105-.084zm70.193 0l-.234 1.547v.086c0 .028.007.056.021.084.014.099.042.191.084.275s.099.142.17.17l.043.043h.043l.275.127a1.01 1.01 0 0 0 .359.063h3.881a1.57 1.57 0 0 1 .381.043c.127.028.219.085.275.17.042.057.077.133.105.232a.8.8 0 0 1 .064.318v.043.043.02a.7.7 0 0 0-.021.17v.148c-.014.127-.042.241-.084.34-.028.099-.1.191-.213.275l-.127.043-.105.041a.4.4 0 0 0-.127.021h-.127-.064-.043-.062c-.014-.014-.036-.021-.064-.021h-3.795-.275a1.54 1.54 0 0 0-.254.021c-.396.014-.77.071-1.123.17s-.623.277-.807.531c-.085.099-.169.218-.254.359l-.254.467c-.212.424-.417.926-.615 1.506-.184.565-.34 1.15-.467 1.758l-.17 1.018-.043.934a5.43 5.43 0 0 0 .064.848c.042.269.114.501.213.699.113.226.254.417.424.572.184.141.382.248.594.318.113.057.225.099.338.127a2.58 2.58 0 0 0 .318.021h.064.063 2.777c.085 0 .164-.02.234-.062l.211-.127c.028-.028.063-.05.105-.064l.107-.064c.028-.028.056-.048.084-.062a.69.69 0 0 1 .105-.086l.086-.084c.028-.028.056-.063.084-.105l.086-.086c.028-.028.048-.056.063-.084l1.199-2.027-.479 2.027v.105l.043.127c.014.028.021.065.021.107l.041.084c.014.014.021.036.021.064.014.028.029.048.043.063 0 .014.007.029.021.043l.063.063a.34.34 0 0 1 .086.064c.042.014.077.029.105.043a1 1 0 0 0 .105.063h.107 3.795l-.086-.041c-.071-.014-.133-.044-.189-.086a.74.74 0 0 1-.148-.148c0-.014-.007-.021-.021-.021 0-.014-.007-.027-.021-.041-.028-.071-.058-.162-.086-.275a3.36 3.36 0 0 1-.02-.404l.02-.467c.028-.17.072-.353.129-.551l1.906-8.84c.028-.113.05-.227.064-.34.028-.113.043-.225.043-.338v-.086-.084c-.028-.24-.092-.48-.191-.721a1.86 1.86 0 0 0-.402-.615c-.226-.24-.488-.396-.785-.467a4.14 4.14 0 0 0-.996-.105h-6.783zm39.982 0l-2.119.105c-.664.057-1.152.156-1.463.297-.678.297-1.322 1.082-1.93 2.354-.594 1.272-1.032 2.643-1.314 4.113l-.234 1.463-.062 1.398c0 .707.07 1.35.211 1.93.155.565.396 1.004.721 1.314.226.198.523.346.891.445a7.45 7.45 0 0 0 1.125.17l.211.041h.234 4.408.086c.028-.014.056-.021.084-.021.184-.014.332-.034.445-.062a2.1 2.1 0 0 0 .318-.105l.105-.064.127-.084a3.19 3.19 0 0 0 .34-.297 1.53 1.53 0 0 0 .297-.445l.785-3.18c-.113.17-.249.316-.404.443a3.76 3.76 0 0 1-.486.34l-.318.148-.297.086c-.184.042-.382.07-.594.084h-.764-.084-.086-2.416-.213a1.07 1.07 0 0 1-.211-.021c-.212-.014-.41-.049-.594-.105-.17-.057-.296-.148-.381-.275-.057-.071-.101-.162-.129-.275a1.96 1.96 0 0 1-.041-.424c0-.353.05-.792.148-1.314l.162-.828h6.918c.325 0 .573-.035.742-.105.17-.085.261-.199.275-.34a4.89 4.89 0 0 0 .105-.402l.17-.637.191-1.08a9.08 9.08 0 0 0 .127-1.23v-.105-.127c0-.594-.084-1.153-.254-1.676s-.496-.897-.977-1.123c-.283-.127-.768-.226-1.461-.297s-1.428-.105-2.205-.105h-.107-.084zm-194.191.063l.063.064c.042.014.079.036.107.064l.041.041.043.043.084.127c.028.028.043.05.043.064v.084l.043.086.043.254c.014.085.02.176.02.275l-2.818 11.299a.7.7 0 0 0-.021.17v.127c0 .141.015.262.043.361.042.085.105.162.189.232.042.057.099.106.17.148l.234.105c.042 0 .077.007.105.021h.105 3.498l-.084-.041c-.014-.014-.036-.029-.064-.043l-.232-.127a.42.42 0 0 1-.127-.148l-.043-.043v-.043h-.021v-.021l-.084-.127c-.014-.057-.021-.133-.021-.232v-.064-.062l2.184-8.84a1.43 1.43 0 0 1 .232-.531.71.71 0 0 1 .361-.254c.155-.085.339-.142.551-.17.226-.042.452-.062.678-.062.311 0 .593.027.848.084.254.042.41.119.467.232a.67.67 0 0 1 .105.234 1.2 1.2 0 0 1 .064.211v.086.063.127.148l-2.035 8.734-.043.213c-.014.057-.021.106-.021.148a.47.47 0 0 0 .021.148c.014.042.029.077.043.105 0 .014.007.029.021.043l.063.063c.028.014.065.036.107.064a.54.54 0 0 0 .127.064l.084.041h.086 3.561c-.014 0-.034-.007-.062-.021a.67.67 0 0 1-.213-.084c-.057-.057-.106-.113-.148-.17h-.043v-.043l-.084-.189a1.22 1.22 0 0 1-.064-.213c-.014-.042-.02-.085-.02-.127v-.105l2.119-8.523.043-.148a.81.81 0 0 1 .063-.168 1.69 1.69 0 0 1 .17-.361c.085-.113.169-.205.254-.275.028-.014.05-.021.064-.021.028-.014.05-.029.064-.043.113-.057.282-.106.508-.148a5.56 5.56 0 0 1 .699-.084h.127.127c.283 0 .538.022.764.064s.367.112.424.211c.071.071.113.148.127.232.028.071.05.157.064.256a1.52 1.52 0 0 1-.064.381l-.127.51-2.076 8.119a1.26 1.26 0 0 0 .063.402 1.05 1.05 0 0 0 .191.275 1.31 1.31 0 0 0 .275.213.96.96 0 0 0 .34.063h3.434a.74.74 0 0 1-.318-.148c-.071-.085-.128-.169-.17-.254l-.02-.021v-.043c-.014-.057-.036-.119-.064-.189a1.09 1.09 0 0 1-.021-.213v-.084c0-.042.007-.077.021-.105l2.227-9.52c.028-.113.048-.227.063-.34a2.58 2.58 0 0 0 .021-.318c0-.325-.057-.62-.17-.889s-.274-.523-.486-.764a1.96 1.96 0 0 0-.807-.531c-.297-.099-.629-.148-.996-.148h-2.268a.7.7 0 0 0-.17.021l-.17.043-.17.084c-.057.014-.113.036-.17.064-.099.057-.198.121-.297.191s-.176.162-.232.275l-.955 1.441c0-.325-.062-.629-.189-.912s-.312-.515-.553-.699c-.212-.155-.445-.277-.699-.361-.24-.099-.501-.148-.783-.148h-2.607a.94.94 0 0 0-.297.043 1.22 1.22 0 0 0-.213.064l-.084.041c-.014 0-.036.007-.064.021-.071.028-.135.07-.191.127-.042.042-.085.092-.127.148l-.084.129a.69.69 0 0 0-.086.105l-.678 1.061.105-.891c0-.141-.035-.262-.105-.361a.68.68 0 0 0-.254-.275c-.028-.014-.063-.029-.105-.043-.028-.014-.065-.034-.107-.062h-.041l-.021-.021c-.057-.028-.106-.05-.148-.064s-.077-.021-.105-.021h-3.244zm133.072 0l.063.064c.042.014.079.036.107.064l.041.041.043.043.084.127c.028.028.043.05.043.064v.084l.043.086.043.254c.014.085.02.176.02.275l-2.818 11.299a.7.7 0 0 0-.021.17v.127c0 .141.015.262.043.361.042.085.105.162.189.232.042.057.099.106.17.148l.234.105c.042 0 .077.007.105.021h.105 3.498l-.084-.041c-.014-.014-.036-.029-.064-.043l-.232-.127a.42.42 0 0 1-.127-.148l-.043-.043v-.043h-.021v-.021l-.084-.127c-.014-.057-.021-.133-.021-.232v-.064-.062l2.184-8.84a1.43 1.43 0 0 1 .232-.531.71.71 0 0 1 .361-.254c.155-.085.339-.142.551-.17.226-.042.452-.062.678-.062.311 0 .593.027.848.084.254.042.41.119.467.232a.67.67 0 0 1 .105.234 1.2 1.2 0 0 1 .064.211v.086.063.127.148l-2.035 8.734-.043.213c-.014.057-.021.106-.021.148a.47.47 0 0 0 .021.148c.014.042.029.077.043.105 0 .014.007.029.021.043l.063.063c.028.014.065.036.107.064a.54.54 0 0 0 .127.064l.084.041h.086 3.561c-.014 0-.034-.007-.062-.021a.67.67 0 0 1-.213-.084c-.057-.057-.106-.113-.148-.17h-.043v-.043l-.084-.189a1.22 1.22 0 0 1-.064-.213c-.014-.042-.02-.085-.02-.127v-.105l2.119-8.523.043-.148a.81.81 0 0 1 .063-.168 1.69 1.69 0 0 1 .17-.361c.085-.113.169-.205.254-.275.028-.014.05-.021.064-.021.028-.014.048-.029.063-.043.113-.057.284-.106.51-.148a5.56 5.56 0 0 1 .699-.084h.127.127c.283 0 .538.022.764.064s.367.112.424.211c.071.071.113.148.127.232.028.071.05.157.064.256a1.52 1.52 0 0 1-.064.381l-.127.51-2.076 8.119a1.26 1.26 0 0 0 .063.402 1.05 1.05 0 0 0 .191.275 1.31 1.31 0 0 0 .275.213.96.96 0 0 0 .34.063h3.434a.74.74 0 0 1-.318-.148c-.071-.085-.128-.169-.17-.254l-.02-.021v-.043a1.51 1.51 0 0 0-.064-.189c-.014-.071-.021-.142-.021-.213v-.084c0-.042.007-.077.021-.105l2.227-9.52a2.87 2.87 0 0 0 .063-.34 2.58 2.58 0 0 0 .021-.318c0-.325-.057-.62-.17-.889s-.274-.523-.486-.764a1.96 1.96 0 0 0-.807-.531c-.297-.099-.629-.148-.996-.148h-2.268a.7.7 0 0 0-.17.021l-.17.043-.17.084c-.057.014-.113.036-.17.064-.099.057-.198.121-.297.191s-.176.162-.232.275l-.955 1.441c0-.325-.062-.629-.189-.912s-.312-.515-.553-.699c-.212-.155-.445-.277-.699-.361-.24-.099-.501-.148-.783-.148h-2.607a.94.94 0 0 0-.297.043 1.22 1.22 0 0 0-.213.064l-.084.041c-.014 0-.036.007-.064.021-.071.028-.135.07-.191.127-.042.042-.085.092-.127.148l-.084.129a.69.69 0 0 0-.086.105l-.678 1.061.105-.891c0-.141-.035-.262-.105-.361a.68.68 0 0 0-.254-.275c-.028-.014-.063-.029-.105-.043-.028-.014-.065-.034-.107-.062h-.041l-.021-.021c-.057-.028-.106-.05-.148-.064s-.079-.021-.107-.021h-3.242zm-17.32 2.227h.041.043.021.043c.353 0 .67.064.953.191s.473.311.572.551c.071.141.12.312.148.51a4.04 4.04 0 0 1 .043.613c0 .396-.042.841-.127 1.336-.085.481-.199.968-.34 1.463l-.615 1.717c-.226.565-.459 1.06-.699 1.484l-.105.191a1.11 1.11 0 0 1-.105.17c-.141.269-.389.479-.742.635-.353.141-.735.213-1.145.213h-.043-.021a2.86 2.86 0 0 1-1.463-.445c-.438-.297-.656-.762-.656-1.398v-.021-.043-.043c0-.367.05-.84.148-1.42.113-.594.267-1.208.465-1.844l.572-1.57c.226-.523.466-.974.721-1.355.198-.269.418-.467.658-.594s.48-.219.721-.275c.155-.028.311-.043.467-.043l.445-.021zm-31.758.105c.791 0 1.329.149 1.611.445s.424.665.424 1.104a3.48 3.48 0 0 1-.043.529 4.67 4.67 0 0 1-.127.572h-4.723l.08-.254c.24-.749.537-1.336.891-1.76.367-.424.996-.637 1.887-.637zm110.176 0c.791 0 1.329.149 1.611.445s.424.665.424 1.104a3.48 3.48 0 0 1-.043.529 4.67 4.67 0 0 1-.127.572h-4.721l.078-.254c.24-.749.537-1.336.891-1.76.367-.424.996-.637 1.887-.637zm-168.539.615c.41-.014.776.065 1.102.234.339.17.579.487.721.953.028.057.043.128.043.213a1.54 1.54 0 0 1 .021.254 3.85 3.85 0 0 1-.105.848l-.256.912-.189.508-.17.488-.297.742-.254.572c-.297.707-.588 1.194-.871 1.463-.269.254-.536.403-.805.445l-.213.043h-.189-.127-.107-.127-.127-.127-.127-1.865l1.779-7.215.021-.016a.72.72 0 0 1 .191-.084c.028-.014.056-.021.084-.021.042-.014.079-.021.107-.021l.508-.127.531-.105.424-.064.424-.021zm55.17 3.107l-.008.031-.043.189-.043.213-.002.002.066-.342.029-.094zm110.168.031l-.043.189-.041.213-.004.004.066-.344.021-.062zm-200.615.635h2.65l-.869 3.689h-3.139c-.028 0-.056-.007-.084-.021l-.084-.043c-.014 0-.036-.005-.064-.02l-.043-.043a1.38 1.38 0 0 1-.148-.086c-.028-.028-.048-.041-.062-.041a.76.76 0 0 1-.17-.275 1.49 1.49 0 0 1-.043-.361 4.05 4.05 0 0 1 .021-.402l.105-.424.17-.488.191-.467.189-.338.17-.256c.155-.184.333-.295.531-.338a2.62 2.62 0 0 1 .678-.086zm165.742 0h2.648l-.869 3.689h-3.137c-.028 0-.056-.007-.084-.021l-.086-.043c-.014 0-.034-.005-.062-.02l-.043-.043a1.38 1.38 0 0 1-.148-.086c-.028-.028-.05-.041-.064-.041a.76.76 0 0 1-.17-.275 1.49 1.49 0 0 1-.041-.361 4.05 4.05 0 0 1 .021-.402l.105-.424.17-.488.189-.467.191-.338.17-.256a.95.95 0 0 1 .529-.338c.212-.057.439-.086.68-.086z" fill="green"/></svg>